<svg width="14" height="12" viewBox="0 0 14 12" fill="none" xmlns="http://www.w3.org/2000/svg">
<path d="M13.1984 2.14866C12.7559 2.38011 12.0894 2.48706 11.8685 2.51788C11.8666 2.5072 11.8648 2.49698 11.863 2.48676C12.6142 2.02218 12.8441 1.1475 12.8441 1.1475C12.3789 1.41343 11.9689 1.56096 11.66 1.64274C11.4864 1.68927 11.3446 1.71445 11.2427 1.72849C10.7746 1.2485 10.1209 0.950684 9.39731 0.950684C7.97366 0.950684 6.81934 2.10457 6.81934 3.5285C6.81934 3.57977 6.82071 3.63073 6.82407 3.68123C6.83093 3.80466 6.84665 3.92595 6.87091 4.04389C6.18182 4.03366 3.69449 3.82235 1.63333 1.42838C1.63333 1.42838 0.485565 3.43071 2.41519 4.7985C2.41519 4.7985 1.63333 4.77409 1.21829 4.481C1.21829 4.481 1.09622 6.4104 3.31866 7.02068C3.31866 7.02068 2.53726 7.21627 2.14618 7.04524C2.14618 7.04524 2.53711 8.70581 4.491 8.82817C4.491 8.82817 3.08963 10.111 0.80127 9.92637C1.92676 10.6389 3.26114 11.0513 4.6918 11.0513C8.71448 11.0513 11.9756 7.7907 11.9756 3.7685C11.9756 3.7183 11.9751 3.66811 11.9741 3.61791C11.9751 3.58816 11.9756 3.55856 11.9756 3.5285C11.9756 3.5076 11.9751 3.4867 11.9748 3.4658C12.7185 2.97025 13.1984 2.14866 13.1984 2.14866Z" fill="white"/>
</svg>
